<svg xmlns="http://www.w3.org/2000/svg" viewBox="0 0 1502.45 160"><defs><style>.cls-1{fill:#0065b2;}.cls-2{fill:#6db22d;}.cls-3{fill:#fff;}.cls-4{fill:#1d1d1b;}.cls-5,.cls-7{fill:#164193;}.cls-6{fill:#ffec00;}.cls-7,.cls-8{fill-rule:evenodd;}.cls-8{fill:#6db12d;}</style></defs><g id="Layer_2" data-name="Layer 2"><g id="Layer_1-2" data-name="Layer 1"><g id="Layer_2-2" data-name="Layer 2"><g id="Laag_1" data-name="Laag 1"><rect class="cls-1" y="0.59" width="920.49" height="159.41"/><rect class="cls-2" x="923.41" y="0.59" width="43.04" height="159.41"/><path class="cls-3" d="M101.41,117.2a106.66,106.66,0,0,1-20.15,2.25c-22.18,0-27-13.81-27-38s4.39-38.57,27-38.57a109.18,109.18,0,0,1,20.15,2.25l-.33,5.79a125.86,125.86,0,0,0-19.27-2c-18,0-20.68,11.37-20.68,32.58s2.78,32,20.78,32a116.33,116.33,0,0,0,19.17-2Z"/><path class="cls-3" d="M114.59,41h6.34v77.37h-6.34Z"/><path class="cls-3" d="M137.64,43.39H144v8h-6.32Zm0,21.41H144v53.59h-6.32Z"/><path class="cls-3" d="M160,118.39V64.8h6.32v4a36.21,36.21,0,0,1,16.35-5c7.4,0,11.36,1.72,14,5.68A43,43,0,0,1,216,63.74c14.57,0,17.88,6.64,17.88,26.57v28.08h-6.31V90.51c0-15.75-1.72-21-12.26-21A35.48,35.48,0,0,0,199,74c1.18,3,1.61,9.44,1.61,16.51v27.88h-6.46V90.74c0-16.07-1.71-21.22-12.26-21.22A33.59,33.59,0,0,0,166.26,74v44.37Z"/><path class="cls-3" d="M286.39,109.5c.3,3.21,3.41,4.27,6.94,4.7l-.3,5.15c-5.25,0-9.22-1.06-12.12-4.29a58.08,58.08,0,0,1-20.13,4.39c-9.44,0-14.7-5.45-14.7-16.16,0-9.87,4.93-14.57,15.76-15.66L280,85.81v-5c0-8.18-3.64-11.27-10.51-11.27-7.7,0-20.23,1.62-20.23,1.62L249,66a135.45,135.45,0,0,1,20.78-2.25c11.67,0,16.62,5.68,16.62,17.05ZM262.6,92.68c-7.2.63-9.87,4.09-9.87,10.48,0,6.87,3,10.84,8.89,10.84A60.61,60.61,0,0,0,280,110.24V90.84Z"/><path class="cls-3" d="M312.2,70.49V97c0,13.41.86,16.82,8.58,16.82,3,0,9.85-.73,9.85-.73l.43,5.45a100.44,100.44,0,0,1-10.81,1.09c-10.61,0-14.47-4-14.47-19.4V70.49h-7.93V64.8h7.93V48h6.42V64.8h17.9v5.69Z"/><path class="cls-3" d="M378.86,112.71l.21,5.25s-12.1,1.49-20.44,1.49c-16,0-20.78-9.75-20.78-27.63,0-20.68,9-28.08,22.07-28.08,13.81,0,21.11,7.4,21.11,25.4l-.22,5.13H344.37c0,12.65,3.63,19.4,14.87,19.4C367.07,113.67,378.86,112.71,378.86,112.71Zm-4.29-23.79c0-14.47-4.6-19.6-14.67-19.6-9.75,0-15.53,5.35-15.53,19.6Z"/><path class="cls-3" d="M395.48,118.39V43.92h6.64v68.46h34.07v6Z"/><path class="cls-3" d="M482.48,109.5c.33,3.21,3.43,4.27,7,4.7l-.33,5.15c-5.23,0-9.19-1.06-12.1-4.29a58.14,58.14,0,0,1-20.15,4.39c-9.42,0-14.67-5.45-14.67-16.16,0-9.87,4.92-14.57,15.76-15.66l18.23-1.82v-5c0-8.18-3.64-11.27-10.51-11.27-7.7,0-20.25,1.62-20.25,1.62L445.1,66A135.37,135.37,0,0,1,466,63.74c11.67,0,16.59,5.68,16.59,17.05ZM458.69,92.68c-7.17.63-9.85,4.09-9.85,10.48,0,6.87,3,10.84,8.89,10.84a60.55,60.55,0,0,0,18.39-3.76V90.84Z"/><path class="cls-3" d="M539.27,64.8v53.59H533v-4a37,37,0,0,1-16.49,5c-14.9,0-17.91-6.64-17.91-26.57V64.8h6.24V92.68c0,16,1.61,21,12.26,21a33.66,33.66,0,0,0,15.76-4.5V64.8Z"/><path class="cls-3" d="M555.36,118.39V64.8h6.33v4s9-5,17.46-5c14.67,0,17.9,6.87,17.9,26.57v28.08h-6.42V90.51c0-15.75-1.71-21-12.42-21a39.38,39.38,0,0,0-16.5,4.5v44.39Z"/><path class="cls-3" d="M646.34,65.13,646,70.61s-8.46-1.09-12.53-1.09c-12.86,0-16.62,5.69-16.62,21.12,0,16.82,2.58,23,16.62,23,4.09,0,12.75-1,12.75-1l.21,5.46s-9.55,1.28-14.15,1.28c-17.35,0-22.07-7.7-22.07-28.81,0-19.62,6.13-26.9,22.18-26.9A135.45,135.45,0,0,1,646.34,65.13Z"/><path class="cls-3" d="M658.89,118.39V41h6.32V67.91a48.56,48.56,0,0,1,17.35-4.09c14.69,0,17.9,6.87,17.9,26.57v28H694V90.51c0-15.75-1.71-21-12.26-21a46.58,46.58,0,0,0-16.49,3.64v45.25Z"/><path class="cls-3" d="M716,64.8h6.34v4.09a37.48,37.48,0,0,1,16.92-5.15c13.39,0,19.07,8.46,19.07,27.1,0,20.68-6.54,28.61-23.14,28.61a66.94,66.94,0,0,1-12.85-1.39v24.53H716Zm6.34,9.55V112.5A81.05,81.05,0,0,0,735,113.77c12.43,0,16.72-6.42,16.72-22.93,0-15.63-4.72-21.32-13.06-21.32A37.67,37.67,0,0,0,722.33,74.35Z"/><path class="cls-3" d="M808.9,109.5c.33,3.21,3.44,4.27,7,4.7l-.33,5.15c-5.25,0-9.21-1.06-12.1-4.29a58.14,58.14,0,0,1-20.15,4.39c-9.42,0-14.67-5.45-14.67-16.16,0-9.87,4.93-14.57,15.76-15.66l18.21-1.82v-5c0-8.18-3.64-11.27-10.51-11.27-7.7,0-20.25,1.62-20.25,1.62L771.5,66a134.6,134.6,0,0,1,20.81-2.25c11.67,0,16.59,5.68,16.59,17.05ZM785.11,92.68c-7.17.63-9.85,4.09-9.85,10.48,0,6.87,3,10.84,8.89,10.84a60.67,60.67,0,0,0,18.4-3.76V90.84Z"/><path class="cls-3" d="M865.59,118.39h-6.43v-4a38.92,38.92,0,0,1-17.15,5c-9,0-18.86-3-18.86-27.2,0-18.76,5.68-28.61,22.48-28.61A100.13,100.13,0,0,1,859.12,65V41h6.43Zm-6.43-9.32V70.71a109.69,109.69,0,0,0-13.29-1.29c-12.75,0-16.06,8.18-16.06,22.83,0,19,6.64,21.42,12.85,21.42A39.87,39.87,0,0,0,859.16,109.07Z"/></g></g><path class="cls-4" d="M1195.38,153.45h6.81v-1h-5.56v-3.88h4.59v-1h-4.59v-3.71h5.56v-1.05h-6.81v10.73Zm8.94,0h1.24V142.72h-1.24v10.73Zm2.81-9.66h3.45v9.66h1.22v-9.66h3.42v-1.07h-8.09v1.07Zm7.83,11.57h1l1.08-3.56h-1.34l-.74,3.56Zm13.48-7.32c0-1.69-.78-2.5-2.6-2.5a20.47,20.47,0,0,0-3.17.34l0,.89s1.92-.21,3-.21c1,0,1.46.39,1.46,1.48v.66l-2.54.23c-1.67.16-2.47.81-2.47,2.3a2.08,2.08,0,0,0,2.27,2.38,8.52,8.52,0,0,0,2.91-.62,2.57,2.57,0,0,0,1.93.62l.05-.92c-.52-.06-.91-.23-.94-.68v-4Zm-1.21,1.55v2.56a9,9,0,0,1-2.54.48c-.83,0-1.23-.53-1.23-1.43s.39-1.3,1.37-1.39l2.4-.22Zm10.73-4.05a6.94,6.94,0,0,0-2.38.54v-3.77h-1.19v11.13s1.73.17,2.7.17c2.94,0,3.81-1.07,3.81-4.16,0-2.79-.74-3.91-2.94-3.91Zm-.89,7c-.44,0-1.49-.08-1.49-.08V147a7,7,0,0,1,2.25-.45c1.42,0,1.84.87,1.84,2.87,0,2.17-.38,3.12-2.6,3.12Zm8.92-7c-2.55,0-3.46,1.27-3.46,3.94,0,2.83.75,4.13,3.46,4.13s3.46-1.3,3.46-4.13c0-2.67-.89-3.94-3.46-3.94Zm0,7.06c-1.91,0-2.21-.91-2.21-3.12s.5-2.93,2.21-2.93,2.22.77,2.22,2.93-.29,3.12-2.22,3.12Zm11.64-10.29h-1.19v3.43a15.51,15.51,0,0,0-2-.2c-2.46,0-3.38,1.37-3.38,4.1,0,3.35,1.32,4,2.91,4a6,6,0,0,0,2.46-.68v.52h1.19V142.31Zm-3.51,10.26c-.95,0-1.81-.42-1.81-2.93,0-2,.5-3.09,2.2-3.09a15.91,15.91,0,0,1,1.93.18V152a6.15,6.15,0,0,1-2.32.57Zm5.1-6.87,2.29,7.75h1.2l-1,3.45h1.21l3.36-11.2H1265l-2,6.75h-.53l-2-6.75Zm15.22-.16c-2.55,0-3.46,1.27-3.46,3.94,0,2.83.75,4.13,3.46,4.13s3.46-1.3,3.46-4.13c0-2.67-.89-3.94-3.46-3.94Zm0,7.06c-1.91,0-2.21-.91-2.21-3.12s.5-2.93,2.21-2.93,2.22.77,2.22,2.93-.29,3.12-2.22,3.12Zm7-5.9h2.34v-1h-2.34V145c0-1.44.29-1.81,1.19-1.81.49,0,1.39,0,1.39,0l0-1s-1.09-.11-1.64-.11c-1.58,0-2.18.6-2.18,2.84v.7h-1v1h1v6.75h1.22V146.7Zm11.54,0v-1h-2.57v-2.38h-1.2v2.38h-1.15v1h1.15v4.09c0,2.23.57,2.83,2.23,2.83a14.68,14.68,0,0,0,1.65-.17l-.08-1s-1,.1-1.44.1c-1,0-1.16-.49-1.16-2.18V146.7Zm2.7,6.75V147a6.94,6.94,0,0,1,2.28-.46c1.48,0,1.73.76,1.73,2.81v4.06h1.21v-4.09c0-2.77-.52-3.82-2.73-3.82a7,7,0,0,0-2.49.59v-3.82h-1.21v11.14Zm10.46-.86c-1.59,0-2.12-.87-2.12-2.54h5.33l.07-.88c0-2.54-1.1-3.63-3.25-3.63s-3.38,1.13-3.38,4.08c0,2.64.79,4,3.2,4a29.05,29.05,0,0,0,3.15-.25l0-.91s-1.76.14-3,.14Zm-2.14-3.46c0-1.88.79-2.61,2.17-2.61s2,.68,2,2.61Zm11.08,4.32h6.8v-1h-5.56v-3.88h4.59v-1h-4.59v-3.71h5.56v-1.05h-6.8v10.73Zm13.64-7.75V152a5.09,5.09,0,0,1-2.22.57c-1.5,0-1.7-.7-1.7-2.84v-4h-1.21v4.05c0,2.85.47,3.86,2.73,3.86a5.66,5.66,0,0,0,2.4-.7v.54h1.21V145.7Zm3.54,7.75h1.21v-5.69a12.13,12.13,0,0,1,2.94-1.06v-1.17a9.29,9.29,0,0,0-3,1.22V145.7h-1.19v7.75Zm8.53-7.91c-2.55,0-3.46,1.27-3.46,3.94,0,2.83.75,4.13,3.46,4.13s3.46-1.3,3.46-4.13c0-2.67-.89-3.94-3.46-3.94Zm0,7.06c-1.91,0-2.21-.91-2.21-3.12s.5-2.93,2.21-2.93,2.22.77,2.22,2.93-.29,3.12-2.22,3.12Zm5.43,4.3h1.21v-3.46a11.94,11.94,0,0,0,1.82.17c2.49,0,3.52-1.09,3.52-4.13,0-2.75-.89-3.94-2.93-3.94a5.68,5.68,0,0,0-2.42.71v-.55h-1.2v11.2Zm3.45-10.32c1.18,0,1.87.78,1.87,2.9s-.58,3.12-2.36,3.12a13,13,0,0,1-1.75-.17V147.2a5.49,5.49,0,0,1,2.24-.62Zm8.06,6c-1.58,0-2.12-.87-2.12-2.54h5.34l.06-.88c0-2.54-1.09-3.63-3.25-3.63s-3.37,1.13-3.37,4.08c0,2.64.79,4,3.2,4a29.05,29.05,0,0,0,3.15-.25l0-.91s-1.76.14-3,.14Zm-2.13-3.46c0-1.88.79-2.61,2.16-2.61s2,.68,2,2.61Zm13-1.09c0-1.69-.77-2.5-2.6-2.5a20.47,20.47,0,0,0-3.17.34l.05.89s1.92-.21,3-.21c1,0,1.46.39,1.46,1.48v.66l-2.54.23c-1.66.16-2.47.81-2.47,2.3a2.09,2.09,0,0,0,2.28,2.38,8.59,8.59,0,0,0,2.91-.62,2.54,2.54,0,0,0,1.92.62l0-.92c-.52-.06-.91-.23-.94-.68v-4Zm-1.21,1.55v2.56a8.88,8.88,0,0,1-2.54.48c-.82,0-1.23-.53-1.23-1.43s.39-1.3,1.38-1.39l2.39-.22Zm4.82,3.86v-6.3a5.71,5.71,0,0,1,2.28-.57c1.5,0,1.74.76,1.74,2.81v4.06h1.2v-4.09c0-2.77-.5-3.82-2.73-3.82a6.32,6.32,0,0,0-2.51.7v-.54H1371v7.75Zm12.39-3.22v-7.51h-1.24v7.48c0,2.46,1.41,3.41,3.86,3.41s4-1,4-3.41v-7.48H1390v7.51c0,1.67-1,2.32-2.74,2.32s-2.62-.65-2.62-2.32Zm10.25,3.22v-6.3a5.77,5.77,0,0,1,2.28-.57c1.51,0,1.75.76,1.75,2.81v4.06h1.19v-4.09c0-2.77-.5-3.82-2.73-3.82a6.31,6.31,0,0,0-2.5.7v-.54h-1.2v7.75Zm7.47,0h1.21V145.7h-1.21v7.75Zm0-9.51h1.21v-1.35h-1.21v1.35Zm6.64,1.6c-2.55,0-3.45,1.27-3.45,3.94,0,2.83.74,4.13,3.45,4.13s3.46-1.3,3.46-4.13c0-2.67-.89-3.94-3.46-3.94Zm0,7.06c-1.9,0-2.21-.91-2.21-3.12s.5-2.93,2.21-2.93,2.22.77,2.22,2.93-.29,3.12-2.22,3.12Zm6.65.85v-6.3a5.71,5.71,0,0,1,2.28-.57c1.5,0,1.74.76,1.74,2.81v4.06h1.2v-4.09c0-2.77-.5-3.82-2.73-3.82a6.32,6.32,0,0,0-2.51.7v-.54h-1.19v7.75Z"/><path class="cls-4" d="M1215.81,130.93a19.57,19.57,0,0,1-2.87.27c-2.56,0-3-1.42-3-4.42s.43-4.48,2.92-4.48a19.68,19.68,0,0,1,2.91.28l0-1a17.06,17.06,0,0,0-3.09-.34c-3.36,0-4.08,1.92-4.08,5.55s.74,5.49,4.08,5.49a18,18,0,0,0,3.09-.32l0-1Zm2,1.19H1219V121h-1.21v11.14Zm3.63,0h1.21v-7.76h-1.21v7.76Zm0-9.51h1.21v-1.35h-1.21v1.35Zm4.75,9.51v-6.3a5,5,0,0,1,2.17-.58c1.47,0,1.7.73,1.7,2.87v4h1.21v-4a8.25,8.25,0,0,0-.21-2.26,5.45,5.45,0,0,1,2.28-.58c1.46,0,1.7.76,1.7,2.81v4.07h1.21V128c0-2.81-.53-3.81-2.73-3.81a7,7,0,0,0-2.88.79,2.32,2.32,0,0,0-2.1-.79,5.61,5.61,0,0,0-2.36.69v-.54H1225v7.76Zm18-5.42c0-1.69-.77-2.49-2.6-2.49a20.47,20.47,0,0,0-3.17.34l0,.88s1.92-.2,3.06-.2c1,0,1.45.39,1.45,1.47v.67l-2.54.23c-1.66.15-2.47.81-2.47,2.3a2.08,2.08,0,0,0,2.28,2.37,8.59,8.59,0,0,0,2.91-.62,2.5,2.5,0,0,0,1.92.62l0-.91c-.52-.06-.91-.23-.94-.68v-4Zm-1.21,1.55v2.57a8.88,8.88,0,0,1-2.54.48c-.82,0-1.23-.53-1.23-1.43s.39-1.31,1.38-1.4l2.39-.22Zm7.79-2.88v-1h-2.57V122H1247v2.37h-1.15v1H1247v4.08c0,2.23.56,2.84,2.23,2.84a14.7,14.7,0,0,0,1.64-.17l-.08-1s-1,.09-1.44.09c-1,0-1.16-.48-1.16-2.17v-3.71Zm4.48,5.88c-1.59,0-2.12-.87-2.12-2.53h5.34l.06-.88c0-2.55-1.1-3.63-3.25-3.63s-3.38,1.13-3.38,4.08c0,2.63.8,4,3.2,4a30.54,30.54,0,0,0,3.16-.24l0-.92s-1.76.14-3,.14Zm-2.13-3.46c0-1.88.79-2.61,2.16-2.61s2,.69,2,2.61Zm7.24.6h4.89v-1.08h-4.89v1.08Zm13.43,3.73h1.47l-3.38-5.34,3.2-5.4h-1.42l-2.86,4.94-1.84.06v-5h-1.25v10.74H1269v-4.69l1.86-.06,3,4.75Zm3.12,0h1.24V121.38h-1.24v10.74Zm10.68-1.19a19.57,19.57,0,0,1-2.87.27c-2.56,0-3-1.42-3-4.42s.43-4.48,2.92-4.48a19.68,19.68,0,0,1,2.91.28l.05-1a17.06,17.06,0,0,0-3.09-.34c-3.36,0-4.08,1.92-4.08,5.55s.74,5.49,4.08,5.49a18,18,0,0,0,3.09-.32l-.05-1Zm5.44,1.19h1.21v-7.76H1293v7.76Zm0-9.51h1.21v-1.35H1293v1.35Zm8.93,1.89a21.76,21.76,0,0,0-2.92-.29c-1.47,0-2.91.55-2.91,2.26,0,1.55.87,1.88,2.7,2.16s2.18.46,2.18,1.27c0,1.06-.71,1.34-2,1.34-.82,0-2.66-.27-2.66-.27l-.07,1a24.1,24.1,0,0,0,2.85.29c1.94,0,3.13-.6,3.13-2.42,0-1.5-.76-1.89-2.78-2.22-1.71-.28-2.1-.48-2.1-1.21,0-.91.76-1.18,1.76-1.18a27.22,27.22,0,0,1,2.83.25l0-1Zm11.08,0a22,22,0,0,0-2.93-.29c-1.47,0-2.91.55-2.91,2.26,0,1.55.87,1.88,2.7,2.16s2.18.46,2.18,1.27c0,1.06-.71,1.34-2,1.34-.83,0-2.67-.27-2.67-.27l-.06,1a23.84,23.84,0,0,0,2.84.29c1.94,0,3.13-.6,3.13-2.42,0-1.5-.75-1.89-2.77-2.22-1.72-.28-2.11-.48-2.11-1.21,0-.91.76-1.18,1.77-1.18a27.22,27.22,0,0,1,2.82.25l0-1Zm7.16-.14v6.3a5,5,0,0,1-2.22.58c-1.5,0-1.69-.7-1.69-2.84v-4h-1.21v4c0,2.86.46,3.86,2.73,3.86a5.64,5.64,0,0,0,2.39-.69v.54h1.21v-7.76Zm3.54,11.2h1.21V132.1a10.59,10.59,0,0,0,1.81.17c2.49,0,3.52-1.08,3.52-4.12,0-2.75-.88-3.94-2.92-3.94a5.69,5.69,0,0,0-2.43.71v-.56h-1.19v11.2Zm3.44-10.32c1.18,0,1.88.78,1.88,2.91s-.58,3.12-2.36,3.12a12.79,12.79,0,0,1-1.75-.17v-5.23a5.35,5.35,0,0,1,2.23-.63Zm5.08,10.32h1.21V132.1a10.59,10.59,0,0,0,1.81.17c2.49,0,3.52-1.08,3.52-4.12,0-2.75-.88-3.94-2.92-3.94a5.69,5.69,0,0,0-2.43.71v-.56h-1.19v11.2Zm3.44-10.32c1.18,0,1.88.78,1.88,2.91s-.59,3.12-2.36,3.12a12.79,12.79,0,0,1-1.75-.17v-5.23a5.35,5.35,0,0,1,2.23-.63Zm8.18-1c-2.55,0-3.46,1.27-3.46,3.94,0,2.82.74,4.12,3.46,4.12s3.46-1.3,3.46-4.12-.89-3.94-3.46-3.94Zm0,7.06c-1.91,0-2.22-.92-2.22-3.12s.51-2.94,2.22-2.94,2.22.78,2.22,2.94-.3,3.12-2.22,3.12Zm5.43.85h1.21v-5.7a12.05,12.05,0,0,1,2.94-1v-1.18a9.43,9.43,0,0,0-3,1.22v-1h-1.2v7.76Zm9.78-6.75v-1h-2.57V122h-1.19v2.37h-1.15v1h1.15v4.08c0,2.23.56,2.84,2.22,2.84a14.68,14.68,0,0,0,1.65-.17l-.08-1s-1,.09-1.44.09c-1.05,0-1.16-.48-1.16-2.17v-3.71Zm4.48,5.88c-1.59,0-2.12-.87-2.12-2.53h5.33l.07-.88c0-2.55-1.1-3.63-3.25-3.63s-3.38,1.13-3.38,4.08c0,2.63.79,4,3.2,4a30.24,30.24,0,0,0,3.15-.24l0-.92s-1.76.14-3,.14Zm-2.14-3.46c0-1.88.8-2.61,2.17-2.61s2,.69,2,2.61Zm13.52-6.81h-1.2v3.43a13.54,13.54,0,0,0-2-.2c-2.45,0-3.37,1.36-3.37,4.09,0,3.35,1.32,4,2.91,4a6,6,0,0,0,2.45-.68v.53h1.2V121Zm-3.51,10.26c-1,0-1.81-.42-1.81-2.94,0-2,.5-3.09,2.2-3.09a13.61,13.61,0,0,1,1.92.19v5.26a6,6,0,0,1-2.31.58Zm13-7a6.94,6.94,0,0,0-2.38.54V121h-1.19V132.1s1.73.17,2.7.17c2.94,0,3.81-1.07,3.81-4.15,0-2.8-.74-3.91-2.94-3.91Zm-.89,7c-.44,0-1.49-.08-1.49-.08v-5.47a7.09,7.09,0,0,1,2.25-.45c1.42,0,1.84.87,1.84,2.88,0,2.17-.38,3.12-2.6,3.12Zm4.92-6.88,2.29,7.76h1.2l-1,3.44h1.21l3.36-11.2h-1.21l-2,6.75h-.53l-2-6.75Zm16.3,1v-1h-2.57V122H1401v2.37h-1.15v1H1401v4.08c0,2.23.56,2.84,2.23,2.84a15,15,0,0,0,1.65-.17l-.08-1s-1,.09-1.44.09c-1,0-1.17-.48-1.17-2.17v-3.71Zm2.7,6.75v-6.41a6.89,6.89,0,0,1,2.28-.47c1.49,0,1.74.76,1.74,2.81v4.07h1.21V128c0-2.76-.52-3.81-2.74-3.81a7.1,7.1,0,0,0-2.49.59V121h-1.21v11.14Zm10.46-.87c-1.58,0-2.12-.87-2.12-2.53h5.34l.06-.88c0-2.55-1.09-3.63-3.24-3.63s-3.38,1.13-3.38,4.08c0,2.63.79,4,3.2,4a30.24,30.24,0,0,0,3.15-.24l0-.92s-1.76.14-3,.14Zm-2.13-3.46c0-1.88.79-2.61,2.17-2.61s2,.69,2,2.61Z"/><rect id="flag_rectangle" data-name="flag rectangle" class="cls-5" x="1432.57" y="115.19" width="69.88" height="44.81"/><path id="flag_star" data-name="flag star" class="cls-6" d="M1484.77,139.56l-1.57-1.12-1.63,1.12.63-1.78-1.61-1.15,2,0,.63-1.83.58,1.8h2l-1.6,1.08Z"/><path id="flag_star-2" data-name="flag star" class="cls-6" d="M1482.65,132l-1.57-1.13-1.63,1.12.63-1.78-1.62-1.14,2,0,.64-1.83.58,1.79,2,0-1.6,1.08Z"/><path id="flag_star-3" data-name="flag star" class="cls-6" d="M1477,126.47l-1.56-1.12-1.64,1.12.63-1.78-1.61-1.15,2,0,.63-1.83.58,1.8h2l-1.6,1.09Z"/><g id="use10445"><path id="flag_star-4" data-name="flag star" class="cls-6" d="M1469.09,124.36l-1.57-1.13-1.63,1.12.63-1.78-1.61-1.15,2,0,.63-1.83.58,1.8,2,0-1.6,1.08Z"/></g><g id="use10446"><path id="flag_star-5" data-name="flag star" class="cls-6" d="M1461.25,126.39l-1.56-1.12-1.64,1.12.63-1.78-1.61-1.15,2,0,.63-1.83.58,1.8,2,0-1.6,1.08Z"/></g><g id="use10447"><path id="flag_star-6" data-name="flag star" class="cls-6" d="M1455.37,131.88l-1.56-1.13-1.64,1.12.63-1.77-1.61-1.15,2,0,.63-1.83.58,1.8h2l-1.6,1.08Z"/></g><g id="use10448"><path id="flag_star-7" data-name="flag star" class="cls-6" d="M1453.25,139.48l-1.57-1.12-1.63,1.12.63-1.78-1.61-1.15,2,0,.64-1.83.58,1.8,2,0-1.61,1.08Z"/></g><g id="use10449"><path id="flag_star-8" data-name="flag star" class="cls-6" d="M1455.37,147.25l-1.56-1.13-1.64,1.12.63-1.78-1.61-1.15,2,0,.63-1.83.58,1.8,2,0-1.6,1.08Z"/></g><g id="g11182"><path id="flag_star-9" data-name="flag star" class="cls-6" d="M1461.09,152.89l-1.57-1.13-1.63,1.12.63-1.78-1.61-1.14,1.95,0,.64-1.82.58,1.79,2,0-1.61,1.08Z"/><path id="flag_star-10" data-name="flag star" class="cls-6" d="M1469,154.93l-1.57-1.13-1.63,1.12.63-1.78-1.61-1.15,2,0,.63-1.83.58,1.8,2,0-1.6,1.08Z"/><path id="flag_star-11" data-name="flag star" class="cls-6" d="M1476.93,152.89l-1.57-1.13-1.63,1.12.63-1.78-1.61-1.14,2,0,.63-1.82.58,1.79,2,0-1.6,1.08Z"/><path id="flag_star-12" data-name="flag star" class="cls-6" d="M1482.81,147.25l-1.57-1.13-1.63,1.12.63-1.78-1.61-1.15,2,0,.63-1.83.58,1.8,2,0-1.6,1.08Z"/></g><rect class="cls-5" x="1124.05" y="44.58" width="3.94" height="3.78"/><rect class="cls-5" x="1124.05" y="52.04" width="3.94" height="29.75"/><path class="cls-7" d="M1135.67,44.58h3.93V52h15.45v3.69H1139.6v18.6a3.78,3.78,0,0,0,3.84,3.78h11.61V81.8h-11.61a7.64,7.64,0,0,1-7.77-7.47V55.73h-5.81V52h5.81Z"/><path class="cls-5" d="M1115.79,63.19h-25.88c.1-2.74.79-4.63,2.16-5.67a7.51,7.51,0,0,1,3.74-1.51,34,34,0,0,1,7.09-.47A35,35,0,0,1,1110,56a7.84,7.84,0,0,1,3.74,1.51Q1115.79,59.08,1115.79,63.19ZM1089.91,67h30.31a33.8,33.8,0,0,0-.59-7.37,11,11,0,0,0-2.07-4.25,9.18,9.18,0,0,0-4.92-2.93,47.29,47.29,0,0,0-9.84-.75,48.49,48.49,0,0,0-9.94.75,8.59,8.59,0,0,0-4.82,2.93A8.75,8.75,0,0,0,1086,59.6a39.17,39.17,0,0,0,0,14.64,8.75,8.75,0,0,0,2.07,4.25,8.59,8.59,0,0,0,4.82,2.93c2.07.56,5.32.75,9.94.75s7.87-.19,9.84-.75a9.18,9.18,0,0,0,4.92-2.93,10.22,10.22,0,0,0,1.77-3.21h-4.62a10,10,0,0,1-1,1.13,8.86,8.86,0,0,1-3.74,1.51,45.21,45.21,0,0,1-7.08.38,43.84,43.84,0,0,1-7.09-.38,8.44,8.44,0,0,1-3.74-1.51,6.51,6.51,0,0,1-2.06-4.72C1089.91,70.18,1089.91,68.48,1089.91,67Z"/><path class="cls-7" d="M1120.22,133.84c38.47,0,69.76-29.94,69.76-66.87s-31.29-67-69.76-67a70.82,70.82,0,0,0-34.84,9l3.84,6.43a63.31,63.31,0,0,1,31-7.94c34.24,0,62,26.64,62,59.51s-27.75,59.5-62,59.5-62-26.73-62-59.5h-7.78C1050.45,103.9,1081.74,133.84,1120.22,133.84Z"/><path class="cls-8" d="M1120.22,119a54.5,54.5,0,0,0,46.93-26.07l-6.69-3.68a46.84,46.84,0,0,1-40.24,22.29c-25.69,0-46.45-20-46.45-44.58s20.76-44.68,46.45-44.68a46.84,46.84,0,0,1,40.24,22.29l6.69-3.68a54.5,54.5,0,0,0-46.93-26.07C1090.3,14.83,1066,38.16,1066,67S1090.3,119,1120.22,119Z"/><path class="cls-5" d="M1240.84,71.64h4a37.35,37.35,0,0,1-.49,5.58q-.75,3.3-4.61,4.07a67.48,67.48,0,0,1-11.14.61q-10.39,0-14-.7a5.9,5.9,0,0,1-4.68-3.49q-1.2-2.82-1.2-10.29a41.8,41.8,0,0,1,.91-10.35q1.08-3.81,5.6-4.44A96.19,96.19,0,0,1,1228,52a60.3,60.3,0,0,1,11.51.76,6.66,6.66,0,0,1,3,1.45,4.73,4.73,0,0,1,1.6,2.49,26.33,26.33,0,0,1,.39,5.21h-3.84c0-.51,0-.85,0-1a7.84,7.84,0,0,0-.43-3,2.9,2.9,0,0,0-1.68-1.38q-2.3-.89-10.71-.89c-4.07,0-7.12.1-9.17.31a9.1,9.1,0,0,0-4,1,4.77,4.77,0,0,0-1.3,2.87,33.76,33.76,0,0,0-.42,6.06c0,1.22,0,2.79.15,4.72s.22,3.26.32,4a3.91,3.91,0,0,0,1.15,2.49,5,5,0,0,0,2.82,1q3.53.34,10.05.35c1.33,0,3.08,0,5.23-.12s3.53-.16,4.12-.23a7.87,7.87,0,0,0,2.57-.67,2.36,2.36,0,0,0,1.15-1.33A18.84,18.84,0,0,0,1240.84,71.64Z"/><path class="cls-5" d="M1249.12,52.08h3.41V81.81h-3.41Z"/><path class="cls-5" d="M1257,52.08h3.4V56H1257Zm0,9.06h3.4V81.81H1257Z"/><path class="cls-5" d="M1265.48,61.14h3.42v2.73a7.79,7.79,0,0,1,3.25-2.43,19.39,19.39,0,0,1,5.58-.56,27.63,27.63,0,0,1,7.59.74,6.36,6.36,0,0,1,3.57,2.86,5.65,5.65,0,0,1,3.22-2.81,21.4,21.4,0,0,1,6.81-.79,29,29,0,0,1,6.59.55,7.14,7.14,0,0,1,3.55,2,5.42,5.42,0,0,1,1.36,2.53,26.58,26.58,0,0,1,.32,5V81.81h-3.4V70.18c0-2.54-.4-4.18-1.18-4.92q-1.59-1.5-7.26-1.5a22.7,22.7,0,0,0-5,.41,5,5,0,0,0-2.59,1.39,5.5,5.5,0,0,0-1.2,2.67,32.74,32.74,0,0,0-.32,5.44v8.14h-3.4V70.18a15,15,0,0,0-.25-3.24,3.19,3.19,0,0,0-.93-1.66q-1.65-1.52-7.31-1.52a22.92,22.92,0,0,0-5,.42,5.35,5.35,0,0,0-2.71,1.45,4.63,4.63,0,0,0-1.08,2.44,40.33,40.33,0,0,0-.26,5.6v8.14h-3.4Z"/><path class="cls-5" d="M1318,67.35h-3.54c0-.38,0-.67,0-.89A4.41,4.41,0,0,1,1317,62q2.54-1.18,9.53-1.18a45.2,45.2,0,0,1,7.89.48,7.2,7.2,0,0,1,3.77,1.83,5,5,0,0,1,1.47,2.57,26.14,26.14,0,0,1,.35,5.18V81.81h-3.39l.07-2.42h-.18a5.59,5.59,0,0,1-3,2.19,29.88,29.88,0,0,1-6.73.49,76.65,76.65,0,0,1-7.85-.26,7,7,0,0,1-3.33-1.09,4.19,4.19,0,0,1-1.58-1.87,8.49,8.49,0,0,1-.44-3,8.08,8.08,0,0,1,.67-3.68,4.16,4.16,0,0,1,2.25-1.92c1.15-.48,3.84-.71,8.06-.71a59.52,59.52,0,0,1,8.67.38,4.88,4.88,0,0,1,3.15,1.84h.29V69.49a6.05,6.05,0,0,0-1-3.93,4.69,4.69,0,0,0-2.75-1.44,33.11,33.11,0,0,0-6-.38c-3.68,0-6,.2-7.13.62a2.57,2.57,0,0,0-1.63,2.71Zm8.71,5c-2.79,0-4.75.05-5.87.14a6.4,6.4,0,0,0-2.38.54,2.93,2.93,0,0,0-1.34,2.81,2.72,2.72,0,0,0,1.59,2.74q1.29.58,8.71.59,5.41,0,7.17-.68a2.93,2.93,0,0,0-.21-5.44C1333.1,72.61,1330.55,72.38,1326.73,72.38Z"/><path class="cls-5" d="M1346.35,56h3.4v5.11h15.07v2.79h-15.07v9c0,2,.09,3.16.16,3.6a2.87,2.87,0,0,0,.66,1.3,3.46,3.46,0,0,0,1.91,1.08,16.37,16.37,0,0,0,3.72.32,12.67,12.67,0,0,0,3.33-.31,3,3,0,0,0,1.64-1.11,3.4,3.4,0,0,0,.51-1.35,20,20,0,0,0,.12-2.65V72.47h3.38v1.31a20.19,20.19,0,0,1-.24,3.6,5.6,5.6,0,0,1-.89,2.17,5.3,5.3,0,0,1-2.84,1.94,18.67,18.67,0,0,1-5.29.58,21.54,21.54,0,0,1-5.45-.54,5.32,5.32,0,0,1-2.92-1.79,5.14,5.14,0,0,1-1-2.11,19.09,19.09,0,0,1-.25-3.64V63.93h-5.29V61.14h5.29Z"/><path class="cls-5" d="M1391.55,75.43h3.56q-.09,3.7-2.72,5.17c-1.76,1-4.81,1.47-9.17,1.47a61.88,61.88,0,0,1-8.2-.4,10.33,10.33,0,0,1-4.23-1.36q-3.27-2.22-3.27-8.78,0-4.59,1.38-6.9a6.53,6.53,0,0,1,3.8-3,30.87,30.87,0,0,1,8.3-.78,39.86,39.86,0,0,1,8,.57,7.38,7.38,0,0,1,3.94,2.18,7.18,7.18,0,0,1,1.68,3.13,24.77,24.77,0,0,1,.5,5.45h-24q.13,3.86,1.59,5.29a5.66,5.66,0,0,0,3.12,1.34,47.26,47.26,0,0,0,7,.36,31,31,0,0,0,5.35-.33,4.69,4.69,0,0,0,2.54-1.2A3.84,3.84,0,0,0,1391.55,75.43Zm-.16-6q0-3-1.68-4.23a7.11,7.11,0,0,0-3-1.12,39.36,39.36,0,0,0-5.76-.31,33.22,33.22,0,0,0-5,.29,6.1,6.1,0,0,0-2.71,1c-1.08.79-1.7,2.24-1.87,4.33Z"/><path class="cls-5" d="M1397.56,69.33h18.22v3.86h-18.22Z"/><path class="cls-5" d="M1418.1,52.08h4.12V64.87h5.38l20.08-12.79h7.24l-23,14.51,24.23,15.22h-7.3L1427.6,68.35h-5.38V81.81h-4.12Z"/><path class="cls-5" d="M1458.14,52.08h4.13V81.81h-4.13Z"/><path class="cls-5" d="M1498.44,71.64h4a35.65,35.65,0,0,1-.5,5.58q-.75,3.3-4.6,4.07a67.48,67.48,0,0,1-11.14.61q-10.39,0-14-.7a5.9,5.9,0,0,1-4.67-3.49q-1.2-2.82-1.2-10.29a42.41,42.41,0,0,1,.9-10.35q1.1-3.81,5.61-4.44a96.19,96.19,0,0,1,12.77-.63,60.11,60.11,0,0,1,11.5.76,6.7,6.7,0,0,1,3,1.45,4.73,4.73,0,0,1,1.6,2.49,27.42,27.42,0,0,1,.38,5.21h-3.83c0-.51,0-.85,0-1a7.84,7.84,0,0,0-.43-3,2.9,2.9,0,0,0-1.68-1.38q-2.3-.89-10.71-.89-6.11,0-9.17.31a9.1,9.1,0,0,0-4,1,4.76,4.76,0,0,0-1.31,2.87,33.76,33.76,0,0,0-.42,6.06c0,1.22.06,2.79.16,4.72s.21,3.26.32,4a3.91,3.91,0,0,0,1.15,2.49,5,5,0,0,0,2.82,1q3.52.34,10,.35c1.33,0,3.07,0,5.23-.12s3.53-.16,4.12-.23a7.8,7.8,0,0,0,2.56-.67,2.34,2.34,0,0,0,1.16-1.33A18.84,18.84,0,0,0,1498.44,71.64Z"/></g></g></svg>